<?xml version="1.0"?>
<svg xmlns="http://www.w3.org/2000/svg" id="pigs" enable-background="new 0 0 300 300" height="512px" viewBox="0 0 300 300" width="512px" class=""><g><g><circle cx="131.727" cy="132.885" fill="#eaeaea" r="86" data-original="#EAEAEA"/><g fill="#4c241d"><path d="m103.727 130.885c-7.719 0-14-6.281-14-14s6.281-14 14-14 14 6.281 14 14-6.281 14-14 14zm0-20c-3.309 0-6 2.691-6 6s2.691 6 6 6 6-2.691 6-6-2.691-6-6-6z" data-original="#4C241D" class=""/><circle cx="254.733" cy="175.812" r="4.276" data-original="#4C241D" class=""/><path d="m79.383 92.541c-1.023 0-2.047-.391-2.828-1.172l-11.312-11.313c-1.562-1.562-1.562-4.094 0-5.656s4.094-1.562 5.656 0l11.312 11.312c1.562 1.562 1.562 4.094 0 5.656-.781.782-1.804 1.173-2.828 1.173z" data-original="#4C241D" class=""/><path d="m68.071 92.541c-1.023 0-2.047-.391-2.828-1.172-1.562-1.562-1.562-4.094 0-5.656l11.312-11.313c1.562-1.562 4.094-1.562 5.656 0s1.562 4.094 0 5.656l-11.312 11.313c-.781.781-1.805 1.172-2.828 1.172z" data-original="#4C241D" class=""/></g><g><path d="m160.457 68.577-10.73 14.307h-12v16l6.045 1.534c6.067 4.55 13.012 11.7 20.34 13.284l1.615.316v16.865h12s.016-6.1 2.908-13.941l1.09.214c3.127 1.115 6.49 1.727 10.001 1.727h24c3.796 0 7.427-.705 10.769-1.991l.947-1.482c1.285 3.162 2.284 6.065 2.284 7.474v8h8s12-24 8-44l-.109.073.044-.069c-1.027-15.638-14.037-28.004-29.935-28.004h-24c-4.25 0-8.293.884-11.956 2.477l-.423.158" fill="#bf7e68" data-original="#BF7E68"/><path d="m237.727 134.885h-8c-2.209 0-4-1.791-4-4v-8c-.004-.053-.037-.42-.326-1.396-3.129.928-6.371 1.396-9.674 1.396h-24c-2.873 0-5.711-.361-8.467-1.074-1.479 5.268-1.533 9.051-1.533 9.098-.02 2.195-1.805 3.977-4 3.977h-12c-2.209 0-4-1.791-4-4v-13.676c-5.922-1.793-11.223-6.164-15.945-10.057-1.293-1.068-2.557-2.109-3.783-3.057l-5.256-1.334c-1.773-.451-3.016-2.047-3.016-3.877v-16c0-2.209 1.791-4 4-4h10l9.531-12.707c1.324-1.762 3.828-2.125 5.6-.799 1.768 1.324 2.125 3.832.799 5.6l-10.73 14.307c-.754 1.008-1.939 1.6-3.199 1.6h-8v8.889l3.029.77c.512.131.992.359 1.414.676 1.516 1.137 3.086 2.43 4.701 3.76 4.445 3.666 9.482 7.82 14.086 8.814l1.539.301c1.877.367 3.23 2.014 3.23 3.926v12.865h4.328c.369-2.781 1.156-6.795 2.828-11.326.68-1.842 2.588-2.93 4.525-2.539l1.09.215c.193.037.385.09.57.156 2.779.992 5.693 1.494 8.658 1.494h24c2.787 0 5.518-.436 8.133-1.295l.209-.328c.803-1.26 2.217-1.957 3.734-1.834 1.49.137 2.779 1.092 3.344 2.477 2.273 5.586 2.58 7.674 2.58 8.98v4h1.434c2.652-6.084 9.422-23.59 6.785-38.469-.223-.531-.328-1.104-.307-1.674-1.09-13.412-12.395-23.857-25.912-23.857h-24c-3.6 0-7.086.723-10.361 2.145l-.619.238c-2.064.775-4.371-.279-5.146-2.35-.771-2.068.279-4.373 2.35-5.146l.424-.158c4.09-1.783 8.65-2.729 13.354-2.729h24c17.6 0 32.328 13.545 33.865 30.977.021.078.041.158.057.238 4.221 21.104-7.83 45.543-8.344 46.574-.679 1.353-2.063 2.209-3.579 2.209z" fill="#4c241d" data-original="#4C241D" class=""/></g><g><path d="m169.727 74.885s-12-4-12-24c0 0 4-4 12 0s12 16 12 16" fill="#bf7e68" data-original="#BF7E68"/><path d="m169.727 78.886c-.418 0-.846-.066-1.266-.207-.602-.201-14.734-5.172-14.734-27.795 0-1.061.422-2.078 1.172-2.828 2.242-2.244 8.264-4.928 16.617-.75 9.373 4.688 13.82 17.76 14.006 18.312.697 2.094-.432 4.354-2.525 5.055-2.086.691-4.359-.426-5.062-2.518-.98-2.908-4.688-11.039-9.996-13.693-2.941-1.471-4.953-1.482-6.146-1.215.816 14.625 9.113 17.812 9.201 17.842 2.096.699 3.229 2.965 2.529 5.061-.56 1.676-2.12 2.736-3.796 2.736z" fill="#4c241d" data-original="#4C241D" class=""/></g><path d="m180.624 120.941c-.461 0-.93-.08-1.387-.25-2.072-.766-3.131-3.066-2.365-5.139 1.426-3.857 3.285-7.521 5.527-10.887 1.221-1.84 3.703-2.342 5.547-1.109 1.838 1.225 2.334 3.707 1.109 5.547-1.896 2.846-3.471 5.947-4.68 9.223-.595 1.615-2.125 2.615-3.751 2.615z" fill="#4c241d" data-original="#4C241D" class=""/><g><path d="m221.727 102.885s3.355 6.71 5.719 12.525" fill="#b5a19c" data-original="#B5A19C"/><path d="m227.448 119.412c-1.58 0-3.076-.943-3.707-2.496-2.275-5.6-5.559-12.176-5.592-12.242-.988-1.977-.188-4.379 1.789-5.367 1.982-.988 4.379-.186 5.367 1.789.139.279 3.451 6.916 5.846 12.809.832 2.047-.152 4.381-2.199 5.211-.495.2-1.004.296-1.504.296z" fill="#4c241d" data-original="#4C241D" class=""/></g><path d="m245.723 78.885c-1.867 0-3.539-1.314-3.918-3.215-.434-2.166.971-4.273 3.137-4.707 2.953-.592 9.773-2.463 9.316-7.08-.264-2.645-2.752-4.998-4.531-4.998-.48 0-.801.043-1.004.086.025.545.275 1.49.594 2.148.955 1.98.141 4.373-1.832 5.342-1.975.971-4.354.178-5.336-1.787-.484-.971-2.779-6.02-.275-10.072 1.049-1.695 3.262-3.717 7.854-3.717 6.115 0 11.836 5.592 12.492 12.209.285 2.893 0 12.572-15.707 15.713-.266.052-.53.078-.79.078z" fill="#4c241d" data-original="#4C241D" class=""/><circle cx="161.727" cy="86.885" fill="#4c241d" r="4" data-original="#4C241D" class=""/><g><path d="m64.457 160.577-10.73 14.307h-12v16l6.045 1.534c6.067 4.55 13.012 11.7 20.34 13.284l1.615.316v16.865h12s.016-6.1 2.908-13.941l1.09.214c3.127 1.115 6.49 1.727 10.001 1.727h24c3.796 0 7.427-.705 10.769-1.991l.947-1.482c1.285 3.162 2.284 6.065 2.284 7.474v8h8s12-24 8-44l-.109.073.044-.069c-1.027-15.638-14.037-28.004-29.935-28.004h-24c-4.25 0-8.293.884-11.956 2.477l-.423.158" fill="#fff" data-original="#FFF" class="active-path"/><path d="m141.727 226.885h-8c-2.209 0-4-1.791-4-4v-8c-.004-.053-.037-.42-.326-1.396-3.129.928-6.371 1.396-9.674 1.396h-24c-2.873 0-5.711-.361-8.467-1.074-1.479 5.268-1.533 9.051-1.533 9.098-.02 2.195-1.805 3.977-4 3.977h-12c-2.209 0-4-1.791-4-4v-13.676c-5.922-1.793-11.223-6.164-15.945-10.057-1.293-1.068-2.557-2.109-3.783-3.057l-5.256-1.334c-1.773-.451-3.016-2.047-3.016-3.877v-16c0-2.209 1.791-4 4-4h10l9.531-12.707c1.322-1.762 3.83-2.129 5.6-.799 1.768 1.324 2.125 3.832.799 5.6l-10.73 14.307c-.754 1.008-1.939 1.6-3.199 1.6h-8v8.889l3.029.77c.512.131.992.359 1.414.676 1.516 1.137 3.086 2.43 4.701 3.76 4.445 3.666 9.482 7.82 14.086 8.814l1.539.301c1.877.367 3.23 2.014 3.23 3.926v12.865h4.328c.369-2.781 1.156-6.795 2.828-11.326.68-1.842 2.6-2.934 4.525-2.539l1.09.215c.193.037.385.09.57.156 2.779.992 5.693 1.494 8.658 1.494h24c2.787 0 5.518-.436 8.133-1.295l.209-.328c.803-1.26 2.217-1.949 3.734-1.834 1.49.137 2.779 1.092 3.344 2.477 2.273 5.586 2.58 7.674 2.58 8.98v4h1.434c2.652-6.084 9.422-23.59 6.785-38.469-.223-.531-.328-1.104-.307-1.674-1.09-13.412-12.395-23.857-25.912-23.857h-24c-3.6 0-7.086.723-10.361 2.145l-.619.238c-2.07.768-4.373-.277-5.146-2.35-.771-2.068.279-4.373 2.35-5.146l.424-.158c4.09-1.783 8.65-2.729 13.354-2.729h24c17.6 0 32.328 13.545 33.865 30.977.021.078.041.158.057.238 4.221 21.104-7.83 45.543-8.344 46.574-.679 1.353-2.063 2.209-3.579 2.209z" fill="#4c241d" data-original="#4C241D" class=""/></g><g><path d="m73.727 166.885s-12-4-12-24c0 0 4-4 12 0s12 16 12 16" fill="#fff" data-original="#FFF" class="active-path"/><path d="m73.727 170.886c-.418 0-.846-.066-1.266-.207-.602-.201-14.734-5.172-14.734-27.795 0-1.061.422-2.078 1.172-2.828 2.242-2.242 8.266-4.926 16.617-.75 9.373 4.688 13.82 17.76 14.006 18.312.697 2.094-.432 4.354-2.525 5.055-2.086.691-4.359-.426-5.062-2.518-.98-2.908-4.688-11.039-9.996-13.693-2.939-1.473-4.951-1.484-6.146-1.215.816 14.625 9.113 17.812 9.201 17.842 2.096.699 3.229 2.965 2.529 5.061-.56 1.676-2.12 2.736-3.796 2.736z" fill="#4c241d" data-original="#4C241D" class=""/></g><path d="m84.624 212.941c-.461 0-.93-.08-1.387-.25-2.072-.766-3.131-3.066-2.365-5.139 1.426-3.857 3.285-7.521 5.527-10.887 1.219-1.84 3.707-2.34 5.547-1.109 1.838 1.225 2.334 3.707 1.109 5.547-1.896 2.846-3.471 5.947-4.68 9.223-.595 1.615-2.125 2.615-3.751 2.615z" fill="#4c241d" data-original="#4C241D" class=""/><g><path d="m125.727 194.885s3.355 6.71 5.719 12.525" fill="#b5a19c" data-original="#B5A19C"/><path d="m131.448 211.412c-1.58 0-3.076-.943-3.707-2.496-2.275-5.6-5.559-12.176-5.592-12.242-.988-1.977-.188-4.379 1.789-5.367 1.982-.99 4.381-.188 5.367 1.789.139.279 3.451 6.916 5.846 12.809.832 2.047-.152 4.381-2.199 5.211-.495.2-1.004.296-1.504.296z" fill="#4c241d" data-original="#4C241D" class=""/></g><path d="m149.723 170.885c-1.867 0-3.539-1.314-3.918-3.215-.434-2.166.971-4.273 3.137-4.707 2.953-.592 9.773-2.463 9.316-7.08-.264-2.645-2.752-4.998-4.531-4.998-.48 0-.801.043-1.004.086.025.545.275 1.49.594 2.148.955 1.98.141 4.373-1.832 5.342-1.971.967-4.354.18-5.336-1.787-.484-.971-2.779-6.02-.275-10.072 1.049-1.695 3.262-3.717 7.854-3.717 6.115 0 11.836 5.592 12.492 12.209.285 2.893 0 12.572-15.707 15.713-.266.052-.53.078-.79.078z" fill="#4c241d" data-original="#4C241D" class=""/><circle cx="65.727" cy="178.885" fill="#4c241d" r="4" data-original="#4C241D" class=""/><g><path d="m124.457 188.577-10.73 14.307h-12v16l6.045 1.534c6.067 4.55 13.012 11.7 20.34 13.284l1.615.316v16.865h12s.016-6.1 2.908-13.941l1.09.214c3.127 1.115 6.49 1.727 10.001 1.727h24c3.796 0 7.427-.705 10.769-1.991l.947-1.482c1.285 3.162 2.284 6.065 2.284 7.474v8h8s12-24 8-44l-.109.073.044-.069c-1.027-15.638-14.037-28.004-29.935-28.004h-24c-4.25 0-8.293.884-11.956 2.477l-.423.158" fill="#b5a19c" data-original="#B5A19C"/><path d="m201.727 254.885h-8c-2.209 0-4-1.791-4-4v-8c-.004-.053-.037-.42-.326-1.396-3.129.928-6.371 1.396-9.674 1.396h-24c-2.873 0-5.711-.361-8.467-1.074-1.479 5.268-1.533 9.051-1.533 9.098-.02 2.195-1.805 3.977-4 3.977h-12c-2.209 0-4-1.791-4-4v-13.676c-5.922-1.793-11.223-6.164-15.945-10.057-1.293-1.068-2.557-2.109-3.783-3.057l-5.256-1.334c-1.773-.451-3.016-2.047-3.016-3.877v-16c0-2.209 1.791-4 4-4h10l9.531-12.707c1.326-1.762 3.832-2.129 5.6-.799 1.768 1.324 2.125 3.832.799 5.6l-10.73 14.307c-.754 1.008-1.939 1.6-3.199 1.6h-8v8.889l3.029.77c.512.131.992.359 1.414.676 1.516 1.137 3.086 2.43 4.701 3.76 4.445 3.666 9.482 7.82 14.086 8.814l1.539.301c1.877.367 3.23 2.014 3.23 3.926v12.865h4.328c.369-2.781 1.156-6.795 2.828-11.326.68-1.842 2.588-2.938 4.525-2.539l1.09.215c.193.037.385.09.57.156 2.779.992 5.693 1.494 8.658 1.494h24c2.787 0 5.518-.436 8.133-1.295l.209-.328c.803-1.26 2.223-1.969 3.734-1.834 1.49.137 2.779 1.092 3.344 2.477 2.273 5.586 2.58 7.674 2.58 8.98v4h1.434c2.652-6.084 9.422-23.59 6.785-38.469-.223-.531-.328-1.104-.307-1.674-1.09-13.412-12.395-23.857-25.912-23.857h-24c-3.6 0-7.086.723-10.361 2.145l-.619.238c-2.068.77-4.373-.279-5.146-2.35-.771-2.068.279-4.373 2.35-5.146l.424-.158c4.09-1.783 8.65-2.729 13.354-2.729h24c17.6 0 32.328 13.545 33.865 30.977.021.078.041.158.057.238 4.221 21.104-7.83 45.543-8.344 46.574-.679 1.353-2.063 2.209-3.579 2.209z" fill="#4c241d" data-original="#4C241D" class=""/></g><g><path d="m133.727 194.885s-12-4-12-24c0 0 4-4 12 0s12 16 12 16" fill="#b5a19c" data-original="#B5A19C"/><path d="m133.727 198.886c-.418 0-.846-.066-1.266-.207-.602-.201-14.734-5.172-14.734-27.795 0-1.061.422-2.078 1.172-2.828 2.242-2.244 8.266-4.928 16.617-.75 9.373 4.688 13.82 17.76 14.006 18.312.697 2.094-.432 4.354-2.525 5.055-2.082.699-4.357-.428-5.062-2.518-.98-2.908-4.688-11.039-9.996-13.693-2.939-1.473-4.951-1.484-6.146-1.215.816 14.625 9.113 17.812 9.201 17.842 2.096.699 3.229 2.965 2.529 5.061-.56 1.676-2.12 2.736-3.796 2.736z" fill="#4c241d" data-original="#4C241D" class=""/></g><path d="m144.624 240.941c-.461 0-.93-.08-1.387-.25-2.072-.766-3.131-3.066-2.365-5.139 1.426-3.857 3.285-7.521 5.527-10.887 1.221-1.836 3.705-2.338 5.547-1.109 1.838 1.225 2.334 3.707 1.109 5.547-1.896 2.846-3.471 5.947-4.68 9.223-.595 1.615-2.125 2.615-3.751 2.615z" fill="#4c241d" data-original="#4C241D" class=""/><g><path d="m185.727 222.885s3.355 6.71 5.719 12.525" fill="#b5a19c" data-original="#B5A19C"/><path d="m191.448 239.412c-1.58 0-3.076-.943-3.707-2.496-2.275-5.6-5.559-12.176-5.592-12.242-.988-1.977-.188-4.379 1.789-5.367 1.979-.99 4.381-.188 5.367 1.789.139.279 3.451 6.916 5.846 12.809.832 2.047-.152 4.381-2.199 5.211-.495.2-1.004.296-1.504.296z" fill="#4c241d" data-original="#4C241D" class=""/></g><path d="m209.723 198.885c-1.867 0-3.539-1.314-3.918-3.215-.434-2.166.971-4.273 3.137-4.707 2.953-.592 9.773-2.463 9.316-7.08-.264-2.645-2.752-4.998-4.531-4.998-.48 0-.801.043-1.004.086.025.545.275 1.49.594 2.148.955 1.98.141 4.373-1.832 5.342-1.971.971-4.354.178-5.336-1.787-.484-.971-2.779-6.02-.275-10.072 1.049-1.695 3.262-3.717 7.854-3.717 6.115 0 11.836 5.592 12.492 12.209.285 2.893 0 12.572-15.707 15.713-.266.052-.53.078-.79.078z" fill="#4c241d" data-original="#4C241D" class=""/><circle cx="125.727" cy="206.885" fill="#4c241d" r="4" data-original="#4C241D" class=""/></g></g> </svg>
